<svg width="79" height="24" viewBox="0 0 79 24" fill="none" xmlns="http://www.w3.org/2000/svg">
<path d="M21.056 11.9999H19.056C18.7907 11.9999 18.5364 12.1052 18.3489 12.2928C18.1613 12.4803 18.056 12.7347 18.056 12.9999C18.056 13.2651 18.1613 13.5195 18.3489 13.707C18.5364 13.8945 18.7907 13.9999 19.056 13.9999V15.9999H17.87C17.9881 15.6795 18.0507 15.3413 18.055 14.9999C18.0549 14.3395 17.837 13.6976 17.435 13.1737C17.033 12.6498 16.4693 12.2732 15.8314 12.1022C15.1935 11.9313 14.5171 11.9756 13.907 12.2283C13.2969 12.481 12.7872 12.928 12.457 13.4999C12.3903 13.6137 12.3467 13.7395 12.3289 13.8702C12.311 14.0008 12.3192 14.1337 12.3529 14.2612C12.3866 14.3887 12.4452 14.5083 12.5253 14.6131C12.6054 14.7178 12.7054 14.8057 12.8196 14.8716C12.9338 14.9376 13.06 14.9803 13.1907 14.9973C13.3215 15.0143 13.4544 15.0052 13.5817 14.9707C13.7089 14.9361 13.8281 14.8768 13.9323 14.7959C14.0366 14.7151 14.1238 14.6145 14.189 14.4999C14.2767 14.3479 14.403 14.2216 14.555 14.1339C14.707 14.0461 14.8794 13.9999 15.055 13.9999C15.3202 13.9999 15.5745 14.1052 15.7621 14.2928C15.9496 14.4803 16.055 14.7347 16.055 14.9999C16.055 15.2651 15.9496 15.5195 15.7621 15.707C15.5745 15.8945 15.3202 15.9999 15.055 15.9999C14.7897 15.9999 14.5354 16.1052 14.3479 16.2928C14.1603 16.4803 14.055 16.7347 14.055 16.9999C14.055 17.2651 14.1603 17.5195 14.3479 17.707C14.5354 17.8945 14.7897 17.9999 15.055 17.9999C15.3202 17.9999 15.5745 18.1052 15.7621 18.2928C15.9496 18.4803 16.055 18.7347 16.055 18.9999C16.055 19.2651 15.9496 19.5195 15.7621 19.707C15.5745 19.8945 15.3202 19.9999 15.055 19.9999C14.8794 19.9999 14.707 19.9537 14.555 19.8659C14.403 19.7781 14.2767 19.6519 14.189 19.4999C14.1238 19.3852 14.0366 19.2846 13.9323 19.2038C13.8281 19.123 13.7089 19.0636 13.5817 19.0291C13.4544 18.9945 13.3215 18.9855 13.1907 19.0025C13.06 19.0195 12.9338 19.0622 12.8196 19.1281C12.7054 19.1941 12.6054 19.2819 12.5253 19.3867C12.4452 19.4915 12.3866 19.611 12.3529 19.7385C12.3192 19.866 12.311 19.9989 12.3289 20.1296C12.3467 20.2603 12.3903 20.3861 12.457 20.4999C12.7872 21.0718 13.2969 21.5187 13.907 21.7714C14.5171 22.0241 15.1935 22.0684 15.8314 21.8975C16.4693 21.7266 17.033 21.35 17.435 20.8261C17.837 20.3022 18.0549 19.6603 18.055 18.9999C18.0507 18.6585 17.9881 18.3203 17.87 17.9999H19.055V20.9999C19.055 21.2651 19.1603 21.5195 19.3479 21.707C19.5354 21.8945 19.7897 21.9999 20.055 21.9999C20.3202 21.9999 20.5745 21.8945 20.7621 21.707C20.9496 21.5195 21.055 21.2651 21.055 20.9999V13.9999C21.3202 13.9999 21.5745 13.8945 21.7621 13.707C21.9496 13.5195 22.055 13.2651 22.055 12.9999C22.055 12.7347 21.9496 12.4803 21.7621 12.2928C21.5745 12.1052 21.3212 11.9999 21.056 11.9999ZM9.08496 11.2429C9.1161 11.3711 9.1723 11.4918 9.25032 11.5982C9.32834 11.7046 9.42664 11.7945 9.53955 11.8627C9.65247 11.9309 9.77776 11.9761 9.90822 11.9957C10.0387 12.0153 10.1717 12.0089 10.2997 11.9768C10.4277 11.9448 10.548 11.8877 10.6538 11.8089C10.7597 11.7302 10.8489 11.6312 10.9163 11.5178C10.9837 11.4044 11.028 11.2788 11.0466 11.1482C11.0653 11.0176 11.0579 10.8846 11.025 10.7569L9.26796 3.72688C9.14505 3.23307 8.86047 2.79456 8.45953 2.48118C8.05859 2.1678 7.56434 1.99756 7.05546 1.99756C6.54658 1.99756 6.05232 2.1678 5.65138 2.48118C5.25044 2.79456 4.96587 3.23307 4.84296 3.72688L3.08496 10.7569C3.05199 10.8846 3.04462 11.0176 3.06327 11.1482C3.08193 11.2788 3.12624 11.4044 3.19365 11.5178C3.26106 11.6312 3.35025 11.7302 3.45607 11.8089C3.56189 11.8877 3.68225 11.9448 3.81022 11.9768C3.93818 12.0089 4.07123 12.0153 4.20169 11.9957C4.33215 11.9761 4.45745 11.9309 4.57036 11.8627C4.68328 11.7945 4.78157 11.7046 4.85959 11.5982C4.93761 11.4918 4.99381 11.3711 5.02496 11.2429L5.58496 8.99988H8.52496L9.08496 11.2429ZM6.08596 6.99988L6.78296 4.21288C6.80398 4.15749 6.84135 4.10981 6.89011 4.07616C6.93887 4.04251 6.99671 4.02449 7.05596 4.02449C7.1152 4.02449 7.17304 4.04251 7.2218 4.07616C7.27056 4.10981 7.30794 4.15749 7.32896 4.21288L8.02596 6.99988H6.08596ZM14.056 6.99988H15.056C15.3212 6.99988 15.5755 7.10524 15.7631 7.29278C15.9506 7.48031 16.056 7.73467 16.056 7.99988V8.99988C16.056 9.2651 16.1613 9.51945 16.3489 9.70699C16.5364 9.89453 16.7907 9.99988 17.056 9.99988C17.3212 9.99988 17.5755 9.89453 17.7631 9.70699C17.9506 9.51945 18.056 9.2651 18.056 8.99988V7.99988C18.0552 7.20448 17.7388 6.44188 17.1764 5.87944C16.614 5.317 15.8514 5.00068 15.056 4.99988H14.056C13.7907 4.99988 13.5364 5.10524 13.3489 5.29278C13.1613 5.48031 13.056 5.73467 13.056 5.99988C13.056 6.2651 13.1613 6.51945 13.3489 6.70699C13.5364 6.89453 13.7907 6.99988 14.056 6.99988ZM10.056 15.9999H9.05596C8.79074 15.9999 8.53639 15.8945 8.34885 15.707C8.16131 15.5195 8.05596 15.2651 8.05596 14.9999V13.9999C8.05596 13.7347 7.9506 13.4803 7.76306 13.2928C7.57553 13.1052 7.32117 12.9999 7.05596 12.9999C6.79074 12.9999 6.53639 13.1052 6.34885 13.2928C6.16131 13.4803 6.05596 13.7347 6.05596 13.9999V14.9999C6.05675 15.7953 6.37308 16.5579 6.93551 17.1203C7.49795 17.6828 8.26055 17.9991 9.05596 17.9999H10.056C10.3212 17.9999 10.5755 17.8945 10.7631 17.707C10.9506 17.5195 11.056 17.2651 11.056 16.9999C11.056 16.7347 10.9506 16.4803 10.7631 16.2928C10.5755 16.1052 10.3212 15.9999 10.056 15.9999Z" fill="black"/>
<path d="M37.646 8.058V10.914H41.006V12.216H37.646V15.198H41.426V16.5H36.05V6.756H41.426V8.058H37.646ZM47.2838 8.66C47.8905 8.66 48.4318 8.786 48.9078 9.038C49.3931 9.29 49.7711 9.66333 50.0418 10.158C50.3125 10.6527 50.4478 11.25 50.4478 11.95V16.5H48.8658V12.188C48.8658 11.4973 48.6931 10.97 48.3478 10.606C48.0025 10.2327 47.5311 10.046 46.9338 10.046C46.3365 10.046 45.8605 10.2327 45.5058 10.606C45.1605 10.97 44.9878 11.4973 44.9878 12.188V16.5H43.3918V8.786H44.9878V9.668C45.2491 9.35067 45.5805 9.10333 45.9818 8.926C46.3925 8.74867 46.8265 8.66 47.2838 8.66ZM58.4056 10.76V12.104H52.6516V10.76H58.4056ZM68.443 6.77V16.5H66.847V12.244H62.269V16.5H60.673V6.77H62.269V10.942H66.847V6.77H68.443ZM74.4361 8.66C75.0428 8.66 75.5841 8.786 76.0601 9.038C76.5455 9.29 76.9235 9.66333 77.1941 10.158C77.4648 10.6527 77.6001 11.25 77.6001 11.95V16.5H76.0181V12.188C76.0181 11.4973 75.8455 10.97 75.5001 10.606C75.1548 10.2327 74.6835 10.046 74.0861 10.046C73.4888 10.046 73.0128 10.2327 72.6581 10.606C72.3128 10.97 72.1401 11.4973 72.1401 12.188V16.5H70.5441V8.786H72.1401V9.668C72.4015 9.35067 72.7328 9.10333 73.1341 8.926C73.5448 8.74867 73.9788 8.66 74.4361 8.66Z" fill="black"/>
</svg>
